<svg width="15" height="15" viewBox="0 0 15 15" fill="none" xmlns="http://www.w3.org/2000/svg">
<path d="M10.6252 6.2485H11.8752C13.1252 6.2485 13.7502 5.6235 13.7502 4.3735V3.1235C13.7502 1.8735 13.1252 1.2485 11.8752 1.2485H10.6252C9.37518 1.2485 8.75018 1.8735 8.75018 3.1235V4.3735C8.75018 5.6235 9.37518 6.2485 10.6252 6.2485Z" stroke="#020202" stroke-width="0.9375" stroke-miterlimit="10" stroke-linecap="round" stroke-linejoin="round"/>
<path d="M3.12518 13.7485H4.37518C5.62518 13.7485 6.25018 13.1235 6.25018 11.8735V10.6235C6.25018 9.3735 5.62518 8.7485 4.37518 8.7485H3.12518C1.87518 8.7485 1.25018 9.3735 1.25018 10.6235V11.8735C1.25018 13.1235 1.87518 13.7485 3.12518 13.7485Z" stroke="#020202" stroke-width="0.9375" stroke-miterlimit="10" stroke-linecap="round" stroke-linejoin="round"/>
<path d="M3.75018 6.2485C5.13089 6.2485 6.25018 5.12922 6.25018 3.7485C6.25018 2.36779 5.13089 1.2485 3.75018 1.2485C2.36947 1.2485 1.25018 2.36779 1.25018 3.7485C1.25018 5.12922 2.36947 6.2485 3.75018 6.2485Z" stroke="#020202" stroke-width="0.9375" stroke-miterlimit="10" stroke-linecap="round" stroke-linejoin="round"/>
<path d="M11.2502 13.7485C12.6309 13.7485 13.7502 12.6292 13.7502 11.2485C13.7502 9.86779 12.6309 8.7485 11.2502 8.7485C9.86947 8.7485 8.75018 9.86779 8.75018 11.2485C8.75018 12.6292 9.86947 13.7485 11.2502 13.7485Z" stroke="#020202" stroke-width="0.9375" stroke-miterlimit="10" stroke-linecap="round" stroke-linejoin="round"/>
</svg>
