<svg width="17" height="17" viewBox="0 0 17 17" fill="none" xmlns="http://www.w3.org/2000/svg">
<path d="M12.75 5.66666H10.625V15.5833H14.875V7.79166C14.875 6.03357 14.5081 5.66666 12.75 5.66666Z" fill="#868686" stroke="#868686" stroke-width="1.0625" stroke-linejoin="round"/>
<path d="M8.5 1.41666H4.25C2.49192 1.41666 2.125 1.78357 2.125 3.54166V15.5833H10.625V3.54166C10.625 1.78357 10.2581 1.41666 8.5 1.41666Z" fill="#868686" stroke="#868686" stroke-width="1.0625" stroke-linejoin="round"/>
<path d="M5.66663 4.25H7.08329M5.66663 6.375H7.08329M5.66663 8.5H7.08329" stroke="white" stroke-width="1.0625" stroke-linecap="round" stroke-linejoin="round"/>
<path d="M8.14579 15.5833V12.75C8.14579 12.0822 8.14579 11.7483 7.93832 11.5408C7.73085 11.3333 7.39694 11.3333 6.72913 11.3333H6.02079C5.35297 11.3333 5.01906 11.3333 4.81159 11.5408C4.60413 11.7483 4.60413 12.0822 4.60413 12.75V15.5833" fill="white"/>
<path d="M8.14579 15.5833V12.75C8.14579 12.0822 8.14579 11.7483 7.93832 11.5408C7.73085 11.3333 7.39694 11.3333 6.72913 11.3333H6.02079C5.35297 11.3333 5.01906 11.3333 4.81159 11.5408C4.60413 11.7483 4.60413 12.0822 4.60413 12.75V15.5833" stroke="#868686" stroke-width="1.0625" stroke-linejoin="round"/>
</svg>
