<svg width="17" height="17" viewBox="0 0 17 17" fill="none" xmlns="http://www.w3.org/2000/svg">
<path d="M11.8646 2.52166V1.41666C11.8646 1.12624 11.6237 0.885406 11.3333 0.885406C11.0429 0.885406 10.8021 1.12624 10.8021 1.41666V2.47916H6.19791V1.41666C6.19791 1.12624 5.95707 0.885406 5.66666 0.885406C5.37624 0.885406 5.13541 1.12624 5.13541 1.41666V2.52166C3.22291 2.69874 2.29499 3.83916 2.15332 5.53207C2.13916 5.73749 2.30916 5.90749 2.50749 5.90749H14.4925C14.6979 5.90749 14.8679 5.73041 14.8467 5.53207C14.705 3.83916 13.7771 2.69874 11.8646 2.52166Z" fill="#868686"/>
<path d="M14.1667 6.97H2.83333C2.44375 6.97 2.125 7.28875 2.125 7.67833V12.0417C2.125 14.1667 3.1875 15.5833 5.66667 15.5833H11.3333C13.8125 15.5833 14.875 14.1667 14.875 12.0417V7.67833C14.875 7.28875 14.5562 6.97 14.1667 6.97ZM6.52375 12.8988C6.48833 12.9271 6.45292 12.9625 6.4175 12.9838C6.375 13.0121 6.3325 13.0333 6.29 13.0475C6.2475 13.0688 6.205 13.0829 6.1625 13.09C6.11292 13.0971 6.07042 13.1042 6.02083 13.1042C5.92875 13.1042 5.83667 13.0829 5.75167 13.0475C5.65958 13.0121 5.58875 12.9625 5.51792 12.8988C5.39042 12.7642 5.3125 12.58 5.3125 12.3958C5.3125 12.2117 5.39042 12.0275 5.51792 11.8929C5.58875 11.8292 5.65958 11.7796 5.75167 11.7442C5.87917 11.6875 6.02083 11.6733 6.1625 11.7017C6.205 11.7088 6.2475 11.7229 6.29 11.7442C6.3325 11.7583 6.375 11.7796 6.4175 11.8079C6.45292 11.8363 6.48833 11.8646 6.52375 11.8929C6.65125 12.0275 6.72917 12.2117 6.72917 12.3958C6.72917 12.58 6.65125 12.7642 6.52375 12.8988ZM6.52375 10.4196C6.38917 10.5471 6.205 10.625 6.02083 10.625C5.83667 10.625 5.6525 10.5471 5.51792 10.4196C5.39042 10.285 5.3125 10.1008 5.3125 9.91667C5.3125 9.7325 5.39042 9.54833 5.51792 9.41375C5.71625 9.21542 6.02792 9.15167 6.29 9.265C6.38208 9.30042 6.46 9.35 6.52375 9.41375C6.65125 9.54833 6.72917 9.7325 6.72917 9.91667C6.72917 10.1008 6.65125 10.285 6.52375 10.4196ZM9.00292 12.8988C8.86833 13.0263 8.68417 13.1042 8.5 13.1042C8.31583 13.1042 8.13167 13.0263 7.99708 12.8988C7.86958 12.7642 7.79167 12.58 7.79167 12.3958C7.79167 12.2117 7.86958 12.0275 7.99708 11.8929C8.25917 11.6308 8.74083 11.6308 9.00292 11.8929C9.13042 12.0275 9.20833 12.2117 9.20833 12.3958C9.20833 12.58 9.13042 12.7642 9.00292 12.8988ZM9.00292 10.4196C8.9675 10.4479 8.93208 10.4763 8.89667 10.5046C8.85417 10.5329 8.81167 10.5542 8.76917 10.5683C8.72667 10.5896 8.68417 10.6038 8.64167 10.6108C8.59208 10.6179 8.54958 10.625 8.5 10.625C8.31583 10.625 8.13167 10.5471 7.99708 10.4196C7.86958 10.285 7.79167 10.1008 7.79167 9.91667C7.79167 9.7325 7.86958 9.54833 7.99708 9.41375C8.06083 9.35 8.13875 9.30042 8.23083 9.265C8.49292 9.15167 8.80458 9.21542 9.00292 9.41375C9.13042 9.54833 9.20833 9.7325 9.20833 9.91667C9.20833 10.1008 9.13042 10.285 9.00292 10.4196ZM11.4821 12.8988C11.3475 13.0263 11.1633 13.1042 10.9792 13.1042C10.795 13.1042 10.6108 13.0263 10.4762 12.8988C10.3488 12.7642 10.2708 12.58 10.2708 12.3958C10.2708 12.2117 10.3488 12.0275 10.4762 11.8929C10.7383 11.6308 11.22 11.6308 11.4821 11.8929C11.6096 12.0275 11.6875 12.2117 11.6875 12.3958C11.6875 12.58 11.6096 12.7642 11.4821 12.8988ZM11.4821 10.4196C11.4467 10.4479 11.4112 10.4763 11.3758 10.5046C11.3333 10.5329 11.2908 10.5542 11.2483 10.5683C11.2058 10.5896 11.1633 10.6038 11.1208 10.6108C11.0712 10.6179 11.0217 10.625 10.9792 10.625C10.795 10.625 10.6108 10.5471 10.4762 10.4196C10.3488 10.285 10.2708 10.1008 10.2708 9.91667C10.2708 9.7325 10.3488 9.54833 10.4762 9.41375C10.5471 9.35 10.6179 9.30042 10.71 9.265C10.8375 9.20833 10.9792 9.19417 11.1208 9.2225C11.1633 9.22958 11.2058 9.24375 11.2483 9.265C11.2908 9.27917 11.3333 9.30042 11.3758 9.32875C11.4112 9.35708 11.4467 9.38542 11.4821 9.41375C11.6096 9.54833 11.6875 9.7325 11.6875 9.91667C11.6875 10.1008 11.6096 10.285 11.4821 10.4196Z" fill="#868686"/>
</svg>
