<svg width="15" height="15" viewBox="0 0 15 15" fill="none" xmlns="http://www.w3.org/2000/svg">
<path d="M3.125 6.25C2.4375 6.25 1.875 6.8125 1.875 7.5C1.875 8.1875 2.4375 8.75 3.125 8.75C3.8125 8.75 4.375 8.1875 4.375 7.5C4.375 6.8125 3.8125 6.25 3.125 6.25Z" fill="#111111"/>
<path d="M11.875 6.25C11.1875 6.25 10.625 6.8125 10.625 7.5C10.625 8.1875 11.1875 8.75 11.875 8.75C12.5625 8.75 13.125 8.1875 13.125 7.5C13.125 6.8125 12.5625 6.25 11.875 6.25Z" fill="#111111"/>
<path d="M7.5 6.25C6.8125 6.25 6.25 6.8125 6.25 7.5C6.25 8.1875 6.8125 8.75 7.5 8.75C8.1875 8.75 8.75 8.1875 8.75 7.5C8.75 6.8125 8.1875 6.25 7.5 6.25Z" fill="#111111"/>
</svg>
