<svg width="13" height="13" viewBox="0 0 13 13" fill="none" xmlns="http://www.w3.org/2000/svg">
<path d="M4.53591 6.81631C2.98063 5.6535 1.87228 4.37447 1.26709 3.65542C1.07975 3.43283 1.01836 3.26994 0.981457 2.983C0.855069 2.0005 0.791882 1.50925 1.07997 1.19213C1.36806 0.875 1.87753 0.875 2.89646 0.875H10.1036C11.1225 0.875 11.6319 0.875 11.92 1.19213C12.2081 1.50925 12.1449 2.0005 12.0186 2.98301C11.9816 3.26994 11.9203 3.43284 11.7329 3.65542C11.1269 4.37539 10.0163 5.65669 8.45788 6.82094C8.31688 6.92631 8.22394 7.09794 8.20669 7.28838C8.05231 8.995 7.90994 9.92975 7.82131 10.4026C7.67831 11.1661 6.59575 11.6254 6.01625 12.0352C5.67131 12.2791 5.25269 11.9887 5.20799 11.6111C5.12277 10.8913 4.96226 9.429 4.78704 7.28838C4.77131 7.09619 4.67804 6.92256 4.53591 6.81631Z" stroke="#111111" stroke-width="0.9375" stroke-linecap="round" stroke-linejoin="round"/>
</svg>
