<svg width="15" height="15" viewBox="0 0 15 15" fill="none" xmlns="http://www.w3.org/2000/svg">
<path d="M5.40186 1.96599L4.33635 2.45851C2.69545 3.21699 1.875 3.59623 1.875 4.21875C1.875 4.84127 2.69545 5.22051 4.33636 5.97899L5.40186 6.4715C6.4345 6.94881 6.95087 7.1875 7.5 7.1875C8.04913 7.1875 8.5655 6.94881 9.59813 6.4715L10.6636 5.97899C12.3046 5.22051 13.125 4.84127 13.125 4.21875C13.125 3.59623 12.3046 3.21699 10.6636 2.45851L9.59813 1.96599C8.5655 1.48866 8.04913 1.25 7.5 1.25C6.95087 1.25 6.4345 1.48866 5.40186 1.96599Z" stroke="#111111" stroke-width="0.9375" stroke-linecap="round" stroke-linejoin="round"/>
<path d="M12.9925 6.93576C13.0808 7.05995 13.125 7.18945 13.125 7.33182C13.125 7.94545 12.3046 8.31932 10.6636 9.06701L9.59813 9.55251C8.5655 10.023 8.04913 10.2583 7.5 10.2583C6.95087 10.2583 6.4345 10.023 5.40186 9.55251L4.33636 9.06701C2.69545 8.31932 1.875 7.94545 1.875 7.33182C1.875 7.18945 1.91917 7.05995 2.0075 6.93576" stroke="#111111" stroke-width="0.9375" stroke-linecap="round" stroke-linejoin="round"/>
<path d="M12.7354 10.1663C12.9951 10.3732 13.125 10.5794 13.125 10.8235C13.125 11.4372 12.3046 11.811 10.6636 12.5587L9.59813 13.0442C8.5655 13.5148 8.04913 13.75 7.5 13.75C6.95087 13.75 6.4345 13.5148 5.40186 13.0442L4.33636 12.5587C2.69545 11.811 1.875 11.4372 1.875 10.8235C1.875 10.5794 2.00486 10.3732 2.26459 10.1663" stroke="#111111" stroke-width="0.9375" stroke-linecap="round" stroke-linejoin="round"/>
</svg>
