<svg width="15" height="15" viewBox="0 0 15 15" fill="none" xmlns="http://www.w3.org/2000/svg">
<path d="M1.56238 7.49939C1.56238 4.70043 1.56238 3.30095 2.4319 2.43141C3.30143 1.56189 4.70092 1.56189 7.49988 1.56189C10.2988 1.56189 11.6983 1.56189 12.5679 2.43141C13.4374 3.30095 13.4374 4.70043 13.4374 7.49939C13.4374 10.2983 13.4374 11.6978 12.5679 12.5674C11.6983 13.4369 10.2988 13.4369 7.49988 13.4369C4.70092 13.4369 3.30143 13.4369 2.4319 12.5674C1.56238 11.6978 1.56238 10.2983 1.56238 7.49939Z" stroke="#2B2B2B" stroke-width="0.9375" stroke-linecap="round" stroke-linejoin="round"/>
<path d="M13.4374 8.4375H10.3588C9.8325 8.4375 9.419 8.87725 9.18707 9.342C8.93507 9.84694 8.43044 10.3125 7.49988 10.3125C6.56932 10.3125 6.06471 9.84694 5.81272 9.342C5.58077 8.87725 5.16723 8.4375 4.64092 8.4375H1.56238" stroke="#2B2B2B" stroke-width="0.9375" stroke-linejoin="round"/>
</svg>
