<svg width="15" height="15" viewBox="0 0 15 15" fill="none" xmlns="http://www.w3.org/2000/svg">
<path d="M13.75 7.5C13.75 10.9517 10.9517 13.75 7.5 13.75C4.04822 13.75 1.25 10.9517 1.25 7.5C1.25 4.04822 4.04822 1.25 7.5 1.25C10.9517 1.25 13.75 4.04822 13.75 7.5Z" fill="#535353" stroke="#535353" stroke-width="0.9375"/>
<path d="M9.81738 5.20659C10.4067 5.79051 9.46388 10.5393 8.49638 10.6229C7.68481 10.6931 7.43188 9.09238 7.26094 8.58506C7.09225 8.08431 6.9045 7.90406 6.40794 7.73975C5.14635 7.32244 4.51556 7.11375 4.39067 6.78331C4.05997 5.90836 9.06475 4.46082 9.81738 5.20659Z" fill="white" stroke="white" stroke-width="0.9375"/>
</svg>
