<svg width="17" height="17" viewBox="0 0 17 17" fill="none" xmlns="http://www.w3.org/2000/svg">
<g clip-path="url(#clip0_1_73)">
<path d="M1.80083 2.10463C1.77692 1.93596 1.74903 1.19885 1.10622 1.26393C0.568331 1.31838 0.59755 1.89612 0.649347 2.1644C0.678565 2.31713 2.40513 16.0008 2.42771 16.1469C2.45825 16.3421 2.73052 16.5453 3.0413 16.5135C3.35208 16.4829 3.53403 16.2412 3.52739 16.0114C3.52341 15.8361 1.83138 2.3344 1.80083 2.10463Z" fill="#B0B0B0"/>
<path d="M2.8434 15.4499C2.76105 15.4499 2.68933 15.3888 2.67871 15.3051L0.938866 1.87513C0.93323 1.83145 0.945176 1.78733 0.972076 1.75246C0.998976 1.71759 1.03863 1.69483 1.0823 1.68919C1.12598 1.68356 1.17011 1.6955 1.20498 1.7224C1.23985 1.7493 1.26261 1.78895 1.26824 1.83263L3.00808 15.2626C3.02004 15.3529 2.95629 15.4366 2.86465 15.4486C2.85801 15.4486 2.85137 15.4499 2.8434 15.4499Z" fill="#C8C8C8"/>
<path d="M2.12617 1.8852L1.80078 2.10567C1.80078 2.10567 2.8593 11.4504 2.89914 11.4636C2.93898 11.4769 5.21539 9.74903 7.16508 9.73575C8.96734 9.72379 9.48531 10.5512 12.2212 10.6508C13.7552 10.7066 15.3968 9.68395 15.3968 9.68395L2.12617 1.8852Z" fill="#9B9B9B"/>
<path d="M2.12616 2.40809L2.06506 1.92465C2.06506 1.92465 3.40381 0.84356 5.08522 0.935201C6.76663 1.02684 8.47327 2.53958 10.8573 2.28325C12.2664 2.13184 13.054 1.46512 13.054 1.46512L14.7526 2.07473L16.009 7.28231L14.6451 8.5852C14.6451 8.5852 4.32686 4.97934 4.23655 4.87309C4.14624 4.76817 2.12616 2.40809 2.12616 2.40809Z" fill="#DACEC9"/>
<path d="M2.3772 3.68924L2.01196 3.97877L2.20985 5.6894L2.6561 5.31619L2.3772 3.68924ZM2.71587 7.23533L2.41173 7.45182L2.6322 9.33643L3.1422 9.0283L2.71587 7.23533ZM4.98696 9.79994C4.99493 9.85705 5.04673 10.2581 5.04673 10.2581C5.04673 10.2581 5.86751 9.88893 6.57806 9.8026C7.15978 9.73088 7.59142 9.74947 7.59142 9.74947L7.53298 9.35502L6.03087 9.25143L4.98696 9.79994ZM9.8572 9.87963L9.93157 10.3232C9.93157 10.3232 10.2716 10.4308 10.8878 10.5304C11.6621 10.6566 12.1469 10.6579 12.2146 10.6553L12.1402 10.0111L10.763 9.64455L9.8572 9.87963ZM14.3117 9.77737L14.3795 10.1917C14.3795 10.1917 14.9134 10.0111 15.5655 9.62861C16.0595 9.33776 16.4049 9.07744 16.4088 9.04291C16.4128 9.00838 16.3318 8.6551 16.3145 8.59932C16.2973 8.54354 16.1525 8.42002 16.1525 8.42002L14.3117 9.77737Z" fill="#2F2F2F"/>
<path d="M3.14634 10.7823L2.12634 2.40711C2.12634 2.40711 3.38939 1.14672 5.20759 1.38844C7.0258 1.63015 9.07244 2.89055 10.8601 2.64883C12.6477 2.40578 13.9799 1.37383 13.9799 1.37383L14.2827 1.69258L15.7675 7.82851L14.3132 9.77953C14.3132 9.77953 13.2985 10.2523 11.9199 10.1766C9.03658 10.0186 8.75767 9.14867 6.55431 9.38773C5.96994 9.45148 5.40548 9.63211 4.90744 9.83398C3.88212 10.2484 3.14634 10.7823 3.14634 10.7823Z" fill="#F1EDEC"/>
<path d="M3.75047 1.09358L3.97891 2.89452C3.97891 2.89452 3.39321 3.0685 2.94829 3.30225C2.61094 3.47889 2.28821 3.76046 2.28821 3.76046L2.49805 5.44983C2.49805 5.44983 2.89383 5.1696 3.3693 4.95178C3.68805 4.80569 4.15422 4.68085 4.15422 4.68085L4.42915 6.40608C4.42915 6.40608 3.80625 6.61991 3.4543 6.80717C3.10235 6.99444 2.71719 7.23483 2.71719 7.23483L2.94829 9.14733C2.94829 9.14733 3.49149 8.82194 3.74383 8.6971C4.15821 8.49257 4.76383 8.26147 4.76383 8.26147L4.98961 9.80077C4.98961 9.80077 5.77852 9.51655 6.3018 9.43421C7.01235 9.32397 7.53696 9.35319 7.53696 9.35319L7.3218 7.92678C7.3218 7.92678 7.82383 7.89757 8.43211 8.03171C8.98594 8.15389 9.57696 8.29202 9.57696 8.29202L9.86118 9.8778C9.86118 9.8778 10.237 9.99866 10.9316 10.0996C11.6276 10.2005 12.1641 10.1846 12.1641 10.1846L11.953 8.61874C11.953 8.61874 12.5002 8.58155 12.9956 8.50585C13.4909 8.43147 14.0235 8.24819 14.0235 8.24819L14.3117 9.78085C14.3117 9.78085 14.8815 9.52585 15.3676 9.23366C15.9559 8.88038 16.3145 8.5935 16.3145 8.5935L16.0091 7.28264C16.0091 7.28264 15.4566 7.5921 15.1006 7.77272C14.6384 8.00514 14.0607 8.20303 14.0607 8.20303L13.7539 6.54155C13.7539 6.54155 14.3383 6.30249 14.7062 6.12186C15.1192 5.91999 15.6027 5.5853 15.6027 5.5853L15.1524 3.73124C15.1524 3.73124 14.6809 4.03139 14.2493 4.2771C13.896 4.47764 13.4325 4.71936 13.3794 4.70475C13.3263 4.69014 13.0221 3.27171 13.0341 3.23452C13.0394 3.21725 13.4511 3.02999 14.0222 2.65413C14.325 2.45491 14.7553 2.07772 14.7553 2.07772C14.7553 2.07772 14.5176 0.758893 14.4751 0.610143C14.4326 0.461393 14.2878 0.376393 14.1404 0.521159C13.993 0.665924 13.5759 1.04311 13.3847 1.2078C13.1934 1.37249 12.6941 1.7085 12.6941 1.7085C12.6941 1.7085 12.9876 3.15881 12.9743 3.18803C12.9637 3.20796 12.7259 3.33413 11.9795 3.50811C11.3699 3.65022 10.9702 3.65553 10.9702 3.65553C10.9702 3.65553 10.8852 3.24514 10.832 2.96491C10.7736 2.6621 10.6899 2.29952 10.6899 2.29952C10.6899 2.29952 10.2052 2.33405 9.49196 2.24639C8.93415 2.17866 8.41352 1.98741 8.41352 1.98741C8.41352 1.98741 8.5211 2.28225 8.56227 2.6103C8.59282 2.85733 8.69243 3.36335 8.69243 3.36335C8.69243 3.36335 8.17844 3.1628 7.59274 3.01006C7.00704 2.85733 6.4386 2.81881 6.4386 2.81881C6.4386 2.81881 6.37883 2.26764 6.33633 1.83467C6.29383 1.40171 6.28719 1.19452 6.28719 1.19452C6.28719 1.19452 5.64969 0.955456 5.03875 0.926237C4.34016 0.893034 3.75047 1.09358 3.75047 1.09358Z" fill="#434343"/>
<path d="M4.02311 2.95998C4.01381 2.99717 4.1692 4.5856 4.18912 4.60021C4.20904 4.61482 4.79475 4.48467 5.36451 4.4342C5.93428 4.38373 6.68865 4.43552 6.68865 4.43552L6.43498 2.84974C6.43498 2.84974 5.70717 2.72224 5.16795 2.74349C4.62873 2.76342 4.02842 2.94006 4.02311 2.95998ZM4.48396 6.44232L4.76951 8.20873C4.76951 8.20873 5.29943 8.00154 5.98076 7.91654C6.66209 7.83154 7.27568 7.88201 7.27568 7.88201L6.96225 6.18865C6.96225 6.18865 6.26631 6.09967 5.6567 6.15146C4.93686 6.2099 4.48396 6.44232 4.48396 6.44232ZM6.72982 4.50857L6.99014 6.12357C6.99014 6.12357 7.70201 6.19927 8.09115 6.27498C8.48029 6.35068 9.1842 6.50209 9.20014 6.48748C9.21475 6.47287 9.02217 4.98802 8.96639 4.93756C8.91061 4.88709 8.34482 4.77154 7.90654 4.6799C7.46561 4.58959 6.73381 4.4581 6.72982 4.50857ZM8.75123 3.4049C8.73529 3.41287 8.93318 4.83263 8.99826 4.89904C9.06334 4.96412 9.70881 5.08099 10.074 5.13013C10.6079 5.20052 11.2561 5.20318 11.2813 5.18857C11.3065 5.17396 10.9626 3.71302 10.9572 3.70373C10.936 3.67052 10.604 3.72365 9.90803 3.64795C9.20146 3.56959 8.77115 3.39427 8.75123 3.4049ZM11.3304 5.22576C11.3119 5.24435 11.612 6.87795 11.6293 6.90052C11.6704 6.95498 12.2349 6.8806 12.6479 6.8049C13.2522 6.69466 13.7118 6.52201 13.7118 6.52201C13.7118 6.52201 13.3718 4.82732 13.3558 4.81271C13.3412 4.7981 12.9029 5.00795 12.3093 5.1142C11.693 5.22576 11.3557 5.20052 11.3304 5.22576ZM9.26787 6.55123C9.26256 6.58177 9.58529 8.22201 9.59459 8.28576C9.5999 8.31896 10.1152 8.43584 10.6345 8.51154C11.2255 8.59787 11.9387 8.61646 11.9387 8.61646C11.9387 8.61646 11.782 7.90193 11.7249 7.57256C11.6651 7.23256 11.6001 6.93638 11.6001 6.93638C11.6001 6.93638 10.9931 6.88592 10.4074 6.7956C9.8217 6.70529 9.26787 6.55123 9.26787 6.55123Z" fill="#F1EDEC"/>
</g>
<defs>
<clipPath id="clip0_1_73">
<rect width="17" height="17" fill="white"/>
</clipPath>
</defs>
</svg>
