<svg width="17" height="17" viewBox="0 0 17 17" fill="none" xmlns="http://www.w3.org/2000/svg">
<g filter="url(#filter0_i_1_101)">
<path d="M3.25012 14.0543L5.93134 11.3731L7.63665 13.079C7.73661 13.1786 7.80325 13.3068 7.8274 13.4459C7.85155 13.5849 7.83203 13.7281 7.77153 13.8556C7.71103 13.9831 7.61251 14.0888 7.48952 14.158C7.36653 14.2273 7.2251 14.2568 7.08468 14.2424L6.51093 14.184C6.44375 14.1771 6.3759 14.1852 6.31215 14.2074C6.2484 14.2297 6.19032 14.2657 6.14199 14.3129C6.09367 14.36 6.05628 14.4172 6.03245 14.4804C6.00863 14.5436 5.99896 14.6112 6.00412 14.6785L6.04875 15.248C6.05893 15.3795 6.02859 15.5109 5.96183 15.6245C5.89506 15.7382 5.79507 15.8287 5.67532 15.8838C5.55557 15.9389 5.42181 15.9559 5.29205 15.9327C5.1623 15.9095 5.04278 15.847 4.94959 15.7538L3.25012 14.0543Z" fill="url(#paint0_linear_1_101)"/>
</g>
<g filter="url(#filter1_i_1_101)">
<path d="M8.71104 6.46582L10.521 8.27526L3.64717 15.1486C3.40601 15.3829 3.08229 15.513 2.74601 15.5105C2.40973 15.5081 2.08793 15.3734 1.85017 15.1356C1.61242 14.8978 1.47782 14.5759 1.47549 14.2397C1.47317 13.9034 1.60329 13.5797 1.83773 13.3386L8.71104 6.46582Z" fill="url(#paint1_linear_1_101)"/>
</g>
<g filter="url(#filter2_i_1_101)">
<path fill-rule="evenodd" clip-rule="evenodd" d="M11.6248 9.5625C12.1847 9.56877 12.7403 9.46391 13.2594 9.25398C13.7785 9.04405 14.2508 8.73323 14.649 8.33951C15.0472 7.9458 15.3632 7.477 15.579 6.96028C15.7947 6.44356 15.9058 5.88918 15.9058 5.32923C15.9058 4.76929 15.7947 4.21491 15.579 3.69818C15.3632 3.18146 15.0472 2.71267 14.649 2.31896C14.2508 1.92524 13.7785 1.61442 13.2594 1.40449C12.7403 1.19456 12.1847 1.0897 11.6248 1.09597C10.5103 1.10845 9.44568 1.55996 8.66197 2.35249C7.87827 3.14502 7.43872 4.21465 7.43872 5.32923C7.43872 6.44382 7.87827 7.51344 8.66197 8.30598C9.44568 9.09851 10.5103 9.55001 11.6248 9.5625ZM11.6248 7.4375C11.9045 7.44194 12.1823 7.39069 12.4419 7.28673C12.7016 7.18277 12.938 7.02819 13.1374 6.83198C13.3367 6.63577 13.495 6.40185 13.6031 6.14386C13.7112 5.88586 13.7668 5.60895 13.7668 5.32923C13.7668 5.04952 13.7112 4.7726 13.6031 4.51461C13.495 4.25662 13.3367 4.0227 13.1374 3.82649C12.938 3.63028 12.7016 3.4757 12.4419 3.37174C12.1823 3.26778 11.9045 3.21653 11.6248 3.22097C11.0715 3.22975 10.5438 3.45574 10.1556 3.85016C9.76734 4.24458 9.54976 4.77581 9.54976 5.32923C9.54976 5.88266 9.76734 6.41389 10.1556 6.80831C10.5438 7.20273 11.0715 7.42872 11.6248 7.4375Z" fill="url(#paint2_linear_1_101)"/>
</g>
<path d="M9.08394 9.59505L7.34205 7.85316C7.18355 7.69466 6.92656 7.69466 6.76806 7.85316C6.60955 8.01166 6.60955 8.26865 6.76806 8.42715L8.50995 10.169C8.66845 10.3275 8.92544 10.3275 9.08394 10.169C9.24245 10.0105 9.24245 9.75355 9.08394 9.59505Z" fill="url(#paint3_linear_1_101)"/>
<path d="M9.08394 9.59505L7.34205 7.85316C7.18355 7.69466 6.92656 7.69466 6.76806 7.85316C6.60955 8.01166 6.60955 8.26865 6.76806 8.42715L8.50995 10.169C8.66845 10.3275 8.92544 10.3275 9.08394 10.169C9.24245 10.0105 9.24245 9.75355 9.08394 9.59505Z" fill="url(#paint4_radial_1_101)"/>
<path d="M9.08394 9.59505L7.34205 7.85316C7.18355 7.69466 6.92656 7.69466 6.76806 7.85316C6.60955 8.01166 6.60955 8.26865 6.76806 8.42715L8.50995 10.169C8.66845 10.3275 8.92544 10.3275 9.08394 10.169C9.24245 10.0105 9.24245 9.75355 9.08394 9.59505Z" fill="url(#paint5_linear_1_101)"/>
<path d="M9.65792 9.02126L7.91603 7.27937C7.75752 7.12086 7.50054 7.12086 7.34203 7.27937C7.18353 7.43787 7.18353 7.69486 7.34203 7.85336L9.08392 9.59525C9.24243 9.75376 9.49941 9.75376 9.65792 9.59525C9.81642 9.43675 9.81642 9.17976 9.65792 9.02126Z" fill="url(#paint6_linear_1_101)"/>
<path d="M9.65792 9.02126L7.91603 7.27937C7.75752 7.12086 7.50054 7.12086 7.34203 7.27937C7.18353 7.43787 7.18353 7.69486 7.34203 7.85336L9.08392 9.59525C9.24243 9.75376 9.49941 9.75376 9.65792 9.59525C9.81642 9.43675 9.81642 9.17976 9.65792 9.02126Z" fill="url(#paint7_radial_1_101)"/>
<path d="M9.65792 9.02126L7.91603 7.27937C7.75752 7.12086 7.50054 7.12086 7.34203 7.27937C7.18353 7.43787 7.18353 7.69486 7.34203 7.85336L9.08392 9.59525C9.24243 9.75376 9.49941 9.75376 9.65792 9.59525C9.81642 9.43675 9.81642 9.17976 9.65792 9.02126Z" fill="url(#paint8_linear_1_101)"/>
<g filter="url(#filter3_f_1_101)">
<path d="M11.8518 8.45417C13.7028 8.45417 15.2034 6.95358 15.2034 5.10251C15.2034 3.25144 13.7028 1.75085 11.8518 1.75085C10.0007 1.75085 8.50012 3.25144 8.50012 5.10251C8.50012 6.95358 10.0007 8.45417 11.8518 8.45417Z" stroke="url(#paint9_linear_1_101)" stroke-width="0.664062"/>
<path d="M11.8518 8.45417C13.7028 8.45417 15.2034 6.95358 15.2034 5.10251C15.2034 3.25144 13.7028 1.75085 11.8518 1.75085C10.0007 1.75085 8.50012 3.25144 8.50012 5.10251C8.50012 6.95358 10.0007 8.45417 11.8518 8.45417Z" stroke="url(#paint10_linear_1_101)" stroke-width="0.664062"/>
</g>
<defs>
<filter id="filter0_i_1_101" x="3.25012" y="11.2934" width="4.5874" height="4.64938" filterUnits="userSpaceOnUse" color-interpolation-filters="sRGB">
<feFlood flood-opacity="0" result="BackgroundImageFix"/>
<feBlend mode="normal" in="SourceGraphic" in2="BackgroundImageFix" result="shape"/>
<feColorMatrix in="SourceAlpha" type="matrix" values="0 0 0 0 0 0 0 0 0 0 0 0 0 0 0 0 0 0 127 0" result="hardAlpha"/>
<feOffset dy="-0.0796875"/>
<feGaussianBlur stdDeviation="0.132812"/>
<feComposite in2="hardAlpha" operator="arithmetic" k2="-1" k3="1"/>
<feColorMatrix type="matrix" values="0 0 0 0 0.839216 0 0 0 0 0.592157 0 0 0 0 0.34902 0 0 0 1 0"/>
<feBlend mode="normal" in2="shape" result="effect1_innerShadow_1_101"/>
</filter>
<filter id="filter1_i_1_101" x="1.47546" y="6.2002" width="9.04553" height="9.31038" filterUnits="userSpaceOnUse" color-interpolation-filters="sRGB">
<feFlood flood-opacity="0" result="BackgroundImageFix"/>
<feBlend mode="normal" in="SourceGraphic" in2="BackgroundImageFix" result="shape"/>
<feColorMatrix in="SourceAlpha" type="matrix" values="0 0 0 0 0 0 0 0 0 0 0 0 0 0 0 0 0 0 127 0" result="hardAlpha"/>
<feOffset dy="-0.265625"/>
<feGaussianBlur stdDeviation="0.398438"/>
<feComposite in2="hardAlpha" operator="arithmetic" k2="-1" k3="1"/>
<feColorMatrix type="matrix" values="0 0 0 0 0.85098 0 0 0 0 0.541176 0 0 0 0 0.34902 0 0 0 1 0"/>
<feBlend mode="normal" in2="shape" result="effect1_innerShadow_1_101"/>
</filter>
<filter id="filter2_i_1_101" x="7.43872" y="0.883203" width="8.46704" height="8.67956" filterUnits="userSpaceOnUse" color-interpolation-filters="sRGB">
<feFlood flood-opacity="0" result="BackgroundImageFix"/>
<feBlend mode="normal" in="SourceGraphic" in2="BackgroundImageFix" result="shape"/>
<feColorMatrix in="SourceAlpha" type="matrix" values="0 0 0 0 0 0 0 0 0 0 0 0 0 0 0 0 0 0 127 0" result="hardAlpha"/>
<feOffset dy="-0.2125"/>
<feGaussianBlur stdDeviation="0.265625"/>
<feComposite in2="hardAlpha" operator="arithmetic" k2="-1" k3="1"/>
<feColorMatrix type="matrix" values="0 0 0 0 0.815686 0 0 0 0 0.505882 0 0 0 0 0.337255 0 0 0 1 0"/>
<feBlend mode="normal" in2="shape" result="effect1_innerShadow_1_101"/>
</filter>
<filter id="filter3_f_1_101" x="7.50403" y="0.754761" width="8.69556" height="8.6955" filterUnits="userSpaceOnUse" color-interpolation-filters="sRGB">
<feFlood flood-opacity="0" result="BackgroundImageFix"/>
<feBlend mode="normal" in="SourceGraphic" in2="BackgroundImageFix" result="shape"/>
<feGaussianBlur stdDeviation="0.332031" result="effect1_foregroundBlur_1_101"/>
</filter>
<linearGradient id="paint0_linear_1_101" x1="6.17943" y1="14.8087" x2="5.11693" y2="13.658" gradientUnits="userSpaceOnUse">
<stop stop-color="#F4B954"/>
<stop offset="0.908" stop-color="#ECA84F"/>
</linearGradient>
<linearGradient id="paint1_linear_1_101" x1="4.27033" y1="11.1722" x2="5.99211" y2="12.8493" gradientUnits="userSpaceOnUse">
<stop stop-color="#F7C250"/>
<stop offset="1" stop-color="#F8AB54"/>
</linearGradient>
<linearGradient id="paint2_linear_1_101" x1="11.6248" y1="1.49441" x2="11.6248" y2="9.5625" gradientUnits="userSpaceOnUse">
<stop stop-color="#F8CF4D"/>
<stop offset="1" stop-color="#ED9953"/>
</linearGradient>
<linearGradient id="paint3_linear_1_101" x1="7.03327" y1="8.19425" x2="8.60987" y2="9.80466" gradientUnits="userSpaceOnUse">
<stop stop-color="#F6BF4E"/>
<stop offset="1" stop-color="#EA994D"/>
</linearGradient>
<radialGradient id="paint4_radial_1_101" cx="0" cy="0" r="1" gradientUnits="userSpaceOnUse" gradientTransform="translate(8.21168 9.01129) rotate(137.756) scale(0.173798 1.00673)">
<stop stop-color="#FCBC66"/>
<stop offset="1" stop-color="#FCBC66" stop-opacity="0"/>
</radialGradient>
<linearGradient id="paint5_linear_1_101" x1="7.68051" y1="9.49738" x2="7.92581" y2="9.24833" gradientUnits="userSpaceOnUse">
<stop offset="0.186" stop-color="#E29226"/>
<stop offset="1" stop-color="#EC9B4F" stop-opacity="0"/>
</linearGradient>
<linearGradient id="paint6_linear_1_101" x1="7.60686" y1="7.62008" x2="9.18422" y2="9.2305" gradientUnits="userSpaceOnUse">
<stop stop-color="#F6BF4E"/>
<stop offset="1" stop-color="#EA994D"/>
</linearGradient>
<radialGradient id="paint7_radial_1_101" cx="0" cy="0" r="1" gradientUnits="userSpaceOnUse" gradientTransform="translate(8.78566 8.43675) rotate(137.756) scale(0.173798 1.00673)">
<stop stop-color="#FBB865"/>
<stop offset="1" stop-color="#FBB865" stop-opacity="0"/>
</radialGradient>
<linearGradient id="paint8_linear_1_101" x1="8.25449" y1="8.92359" x2="8.50016" y2="8.67416" gradientUnits="userSpaceOnUse">
<stop offset="0.186" stop-color="#E29226"/>
<stop offset="1" stop-color="#E29226" stop-opacity="0"/>
</linearGradient>
<linearGradient id="paint9_linear_1_101" x1="14.5139" y1="2.2837" x2="11.405" y2="4.91923" gradientUnits="userSpaceOnUse">
<stop stop-color="#FFDD67"/>
<stop offset="1" stop-color="#FFDD67" stop-opacity="0"/>
</linearGradient>
<linearGradient id="paint10_linear_1_101" x1="9.36712" y1="7.43789" x2="10.0976" y2="6.27604" gradientUnits="userSpaceOnUse">
<stop stop-color="#FEB765"/>
<stop offset="1" stop-color="#FEB765" stop-opacity="0"/>
</linearGradient>
</defs>
</svg>
