<svg width="17" height="17" viewBox="0 0 17 17" fill="none" xmlns="http://www.w3.org/2000/svg">
<path d="M13.175 7.65C13.7145 7.64992 14.2338 7.85505 14.6276 8.22378C15.0215 8.59252 15.2603 9.09725 15.2957 9.6356L15.3 9.775V14.025C15.3001 14.1312 15.2606 14.2336 15.189 14.3121C15.1175 14.3906 15.0191 14.4394 14.9134 14.449C14.8076 14.4586 14.7021 14.4283 14.6175 14.364C14.533 14.2996 14.4757 14.206 14.4567 14.1015L14.45 14.025V11.9H2.54995V14.025C2.55015 14.1312 2.51057 14.2336 2.43902 14.3121C2.36747 14.3906 2.26912 14.4394 2.16335 14.449C2.05758 14.4586 1.95205 14.4283 1.86754 14.364C1.78304 14.2996 1.72567 14.206 1.70675 14.1015L1.69995 14.025V9.775C1.69987 9.23549 1.905 8.71615 2.27373 8.32231C2.64247 7.92848 3.1472 7.68964 3.68555 7.65425L3.82495 7.65H13.175Z" fill="#B8B8B8"/>
<path d="M5.52515 2.55078H11.4751C12.0147 2.5507 12.534 2.75583 12.9278 3.12457C13.3217 3.4933 13.5605 3.99803 13.5959 4.53638L13.6001 4.67578V6.80078H11.9001V6.37578C11.9002 6.27631 11.8653 6.17998 11.8016 6.10356C11.738 6.02714 11.6495 5.97549 11.5516 5.95758L11.4751 5.95078H9.35015C9.25067 5.95075 9.15434 5.98561 9.07793 6.04929C9.00151 6.11297 8.94985 6.20143 8.93195 6.29928L8.92515 6.37578V6.80078H8.07515V6.37578C8.07518 6.27631 8.04032 6.17998 7.97664 6.10356C7.91296 6.02714 7.82449 5.97549 7.72665 5.95758L7.65015 5.95078H5.52515C5.42567 5.95075 5.32934 5.98561 5.25293 6.04929C5.17651 6.11297 5.12485 6.20143 5.10695 6.29928L5.10015 6.37578V6.80078H3.40015V4.67578C3.40006 4.13627 3.60519 3.61693 3.97393 3.22309C4.34267 2.82926 4.8474 2.59042 5.38575 2.55503L5.52515 2.55078Z" fill="#CB1F1D"/>
</svg>
