<svg width="17" height="17" viewBox="0 0 17 17" fill="none" xmlns="http://www.w3.org/2000/svg">
<path d="M11.4679 1.41666H5.5321C2.95377 1.41666 1.41669 2.95374 1.41669 5.53207V11.4679C1.41669 13.4583 2.33044 14.8254 3.93835 15.3425C4.40585 15.5054 4.94419 15.5833 5.5321 15.5833H11.4679C12.0559 15.5833 12.5942 15.5054 13.0617 15.3425C14.6696 14.8254 15.5834 13.4583 15.5834 11.4679V5.53207C15.5834 2.95374 14.0463 1.41666 11.4679 1.41666ZM14.5209 11.4679C14.5209 12.9837 13.9259 13.94 12.7288 14.3367C12.0417 12.9837 10.4125 12.0204 8.50002 12.0204C6.58752 12.0204 4.96544 12.9767 4.27127 14.3367H4.26419C3.08127 13.9542 2.47919 12.9908 2.47919 11.475V5.53207C2.47919 3.53457 3.5346 2.47916 5.5321 2.47916H11.4679C13.4654 2.47916 14.5209 3.53457 14.5209 5.53207V11.4679Z" fill="#868686"/>
<path d="M8.50001 5.66666C7.09751 5.66666 5.96417 6.79999 5.96417 8.20249C5.96417 9.60499 7.09751 10.7454 8.50001 10.7454C9.90251 10.7454 11.0358 9.60499 11.0358 8.20249C11.0358 6.79999 9.90251 5.66666 8.50001 5.66666Z" fill="#868686"/>
</svg>
