<svg width="17" height="17" viewBox="0 0 17 17" fill="none" xmlns="http://www.w3.org/2000/svg">
<g clip-path="url(#clip0_1_69)">
<path d="M7.70312 2.39062V1.32812C7.70312 1.11678 7.78708 0.914092 7.93652 0.764649C8.08597 0.615206 8.28866 0.53125 8.5 0.53125C8.71134 0.53125 8.91403 0.615206 9.06348 0.764649C9.21292 0.914092 9.29688 1.11678 9.29688 1.32812V2.39062C9.29688 2.60197 9.21292 2.80466 9.06348 2.9541C8.91403 3.10354 8.71134 3.1875 8.5 3.1875C8.28866 3.1875 8.08597 3.10354 7.93652 2.9541C7.78708 2.80466 7.70312 2.60197 7.70312 2.39062ZM13.0156 8.5C13.0156 9.39311 12.7508 10.2662 12.2546 11.0087C11.7584 11.7513 11.0532 12.3301 10.2281 12.6719C9.40293 13.0137 8.49499 13.1031 7.61905 12.9289C6.7431 12.7546 5.93849 12.3246 5.30697 11.693C4.67545 11.0615 4.24538 10.2569 4.07114 9.38095C3.89691 8.50501 3.98633 7.59707 4.32811 6.77194C4.66988 5.94682 5.24866 5.24158 5.99125 4.7454C6.73384 4.24921 7.60689 3.98438 8.5 3.98438C9.69724 3.98561 10.8451 4.46175 11.6917 5.30833C12.5382 6.15491 13.0144 7.30276 13.0156 8.5ZM11.4219 8.5C11.4219 7.92211 11.2505 7.35719 10.9295 6.87669C10.6084 6.39619 10.1521 6.02169 9.61815 5.80054C9.08425 5.57939 8.49676 5.52153 7.92997 5.63427C7.36318 5.74701 6.84255 6.02529 6.43392 6.43392C6.02529 6.84255 5.74701 7.36318 5.63427 7.92997C5.52153 8.49676 5.57939 9.08425 5.80054 9.61815C6.02169 10.1521 6.39619 10.6084 6.87669 10.9295C7.35719 11.2505 7.92211 11.4219 8.5 11.4219C9.27466 11.421 10.0173 11.1129 10.5651 10.5651C11.1129 10.0173 11.421 9.27466 11.4219 8.5ZM3.42059 4.54816C3.49471 4.62229 3.58271 4.68109 3.67956 4.7212C3.77641 4.76132 3.88021 4.78197 3.98504 4.78197C4.08987 4.78197 4.19367 4.76132 4.29052 4.7212C4.38737 4.68109 4.47537 4.62229 4.54949 4.54816C4.62362 4.47404 4.68242 4.38604 4.72253 4.28919C4.76265 4.19234 4.7833 4.08854 4.7833 3.98371C4.7833 3.87888 4.76265 3.77508 4.72253 3.67823C4.68242 3.58138 4.62362 3.49338 4.54949 3.41926L3.75262 2.62238C3.60291 2.47268 3.39987 2.38858 3.18816 2.38858C2.97645 2.38858 2.77341 2.47268 2.62371 2.62238C2.47401 2.77209 2.38991 2.97513 2.38991 3.18684C2.38991 3.39855 2.47401 3.60159 2.62371 3.75129L3.42059 4.54816ZM3.42059 12.4505L2.62371 13.2474C2.54959 13.3215 2.49079 13.4095 2.45067 13.5064C2.41055 13.6032 2.38991 13.707 2.38991 13.8118C2.38991 13.9167 2.41055 14.0205 2.45067 14.1173C2.49079 14.2142 2.54959 14.3022 2.62371 14.3763C2.77341 14.526 2.97645 14.6101 3.18816 14.6101C3.29299 14.6101 3.3968 14.5894 3.49364 14.5493C3.59049 14.5092 3.67849 14.4504 3.75262 14.3763L4.54949 13.5794C4.69919 13.4297 4.7833 13.2267 4.7833 13.015C4.7833 12.8033 4.69919 12.6002 4.54949 12.4505C4.39979 12.3008 4.19675 12.2167 3.98504 12.2167C3.77333 12.2167 3.57029 12.3008 3.42059 12.4505ZM13.0156 4.78125C13.1203 4.78133 13.224 4.76079 13.3207 4.7208C13.4174 4.6808 13.5054 4.62214 13.5794 4.54816L14.3763 3.75129C14.4504 3.67716 14.5092 3.58916 14.5493 3.49232C14.5894 3.39547 14.6101 3.29166 14.6101 3.18684C14.6101 3.08201 14.5894 2.9782 14.5493 2.88136C14.5092 2.78451 14.4504 2.69651 14.3763 2.62238C14.3022 2.54826 14.2142 2.48946 14.1173 2.44934C14.0205 2.40923 13.9167 2.38858 13.8118 2.38858C13.707 2.38858 13.6032 2.40923 13.5064 2.44934C13.4095 2.48946 13.3215 2.54826 13.2474 2.62238L12.4505 3.41926C12.3384 3.53071 12.262 3.673 12.2309 3.82801C12.1999 3.98302 12.2157 4.14376 12.2763 4.28978C12.3369 4.43579 12.4395 4.56049 12.5712 4.64801C12.7028 4.73552 12.8575 4.7819 13.0156 4.78125ZM13.5794 12.4518C13.4297 12.3021 13.2267 12.218 13.015 12.218C12.8033 12.218 12.6002 12.3021 12.4505 12.4518C12.3008 12.6015 12.2167 12.8046 12.2167 13.0163C12.2167 13.228 12.3008 13.431 12.4505 13.5807L13.2474 14.3776C13.3971 14.5273 13.6001 14.6114 13.8118 14.6114C14.0235 14.6114 14.2266 14.5273 14.3763 14.3776C14.526 14.2279 14.6101 14.0249 14.6101 13.8132C14.6101 13.6015 14.526 13.3984 14.3763 13.2487L13.5794 12.4518ZM3.1875 8.5C3.1875 8.28866 3.10354 8.08597 2.9541 7.93652C2.80466 7.78708 2.60197 7.70312 2.39062 7.70312H1.32812C1.11678 7.70312 0.914092 7.78708 0.764649 7.93652C0.615206 8.08597 0.53125 8.28866 0.53125 8.5C0.53125 8.71134 0.615206 8.91403 0.764649 9.06348C0.914092 9.21292 1.11678 9.29688 1.32812 9.29688H2.39062C2.60197 9.29688 2.80466 9.21292 2.9541 9.06348C3.10354 8.91403 3.1875 8.71134 3.1875 8.5ZM8.5 13.8125C8.28866 13.8125 8.08597 13.8965 7.93652 14.0459C7.78708 14.1953 7.70312 14.398 7.70312 14.6094V15.6719C7.70312 15.8832 7.78708 16.0859 7.93652 16.2354C8.08597 16.3848 8.28866 16.4688 8.5 16.4688C8.71134 16.4688 8.91403 16.3848 9.06348 16.2354C9.21292 16.0859 9.29688 15.8832 9.29688 15.6719V14.6094C9.29688 14.398 9.21292 14.1953 9.06348 14.0459C8.91403 13.8965 8.71134 13.8125 8.5 13.8125ZM15.6719 7.70312H14.6094C14.398 7.70312 14.1953 7.78708 14.0459 7.93652C13.8965 8.08597 13.8125 8.28866 13.8125 8.5C13.8125 8.71134 13.8965 8.91403 14.0459 9.06348C14.1953 9.21292 14.398 9.29688 14.6094 9.29688H15.6719C15.8832 9.29688 16.0859 9.21292 16.2354 9.06348C16.3848 8.91403 16.4688 8.71134 16.4688 8.5C16.4688 8.28866 16.3848 8.08597 16.2354 7.93652C16.0859 7.78708 15.8832 7.70312 15.6719 7.70312Z" fill="url(#paint0_radial_1_69)"/>
</g>
<defs>
<radialGradient id="paint0_radial_1_69" cx="0" cy="0" r="1" gradientUnits="userSpaceOnUse" gradientTransform="translate(8.5 8.5) rotate(90) scale(7.96875)">
<stop stop-color="#FAD522"/>
<stop offset="1" stop-color="#FF8A00"/>
</radialGradient>
<clipPath id="clip0_1_69">
<rect width="17" height="17" fill="white"/>
</clipPath>
</defs>
</svg>
