<svg width="18" height="18" viewBox="0 0 18 18" fill="none" xmlns="http://www.w3.org/2000/svg">
<path d="M1.87476 8.99927C1.87476 5.64051 1.87476 3.96113 2.91819 2.9177C3.96162 1.87427 5.641 1.87427 8.99976 1.87427C12.3585 1.87427 14.0379 1.87427 15.0814 2.9177C16.1248 3.96113 16.1248 5.64051 16.1248 8.99927C16.1248 12.358 16.1248 14.0374 15.0814 15.0809C14.0379 16.1243 12.3585 16.1243 8.99976 16.1243C5.641 16.1243 3.96162 16.1243 2.91819 15.0809C1.87476 14.0374 1.87476 12.358 1.87476 8.99927Z" stroke="#292929" stroke-width="1.125"/>
<path d="M7.49976 6.74927C7.49976 5.92084 8.17131 5.24927 8.99976 5.24927C9.82821 5.24927 10.4998 5.92084 10.4998 6.74927C10.4998 7.04788 10.4125 7.32612 10.2621 7.55987C9.81381 8.25654 8.99976 8.92082 8.99976 9.74927V10.1243" stroke="#292929" stroke-width="1.125" stroke-linecap="round"/>
<path d="M8.9939 12.7507H9.00065" stroke="#292929" stroke-width="1.5" stroke-linecap="round" stroke-linejoin="round"/>
</svg>
