<svg width="17" height="17" viewBox="0 0 17 17" fill="none" xmlns="http://www.w3.org/2000/svg">
<path d="M7.91346 1.41667C8.477 1.41679 9.01741 1.64075 9.41583 2.03929L14.8771 7.50054C15.33 7.95351 15.5844 8.56781 15.5844 9.20833C15.5844 9.84886 15.33 10.4632 14.8771 10.9161L10.9161 14.8771C10.4631 15.33 9.84882 15.5844 9.20829 15.5844C8.56777 15.5844 7.95347 15.33 7.5005 14.8771L2.03925 9.41588C1.64071 9.01745 1.41675 8.47704 1.41663 7.9135V4.25C1.41663 3.49855 1.71514 2.77789 2.24649 2.24653C2.77784 1.71518 3.49851 1.41667 4.24996 1.41667H7.91346ZM5.31246 3.89583C4.95505 3.89572 4.61081 4.03071 4.34874 4.27373C4.08667 4.51675 3.92614 4.84985 3.89933 5.20625L3.89579 5.3125C3.89579 5.59269 3.97888 5.86659 4.13454 6.09956C4.29021 6.33253 4.51146 6.51411 4.77032 6.62133C5.02919 6.72855 5.31403 6.75661 5.58884 6.70195C5.86364 6.64728 6.11607 6.51236 6.31419 6.31424C6.51232 6.11611 6.64724 5.86369 6.70191 5.58888C6.75657 5.31407 6.72851 5.02923 6.62129 4.77037C6.51406 4.5115 6.33249 4.29025 6.09952 4.13459C5.86655 3.97892 5.59265 3.89583 5.31246 3.89583Z" fill="#F8D1A1"/>
</svg>
