<svg width="18" height="18" viewBox="0 0 18 18" fill="none" xmlns="http://www.w3.org/2000/svg">
<path d="M12.2312 3.28796C11.788 3.28796 11.5663 3.28795 11.3644 3.21304C11.3363 3.20263 11.3087 3.19118 11.2815 3.17871C11.0857 3.08891 10.9291 2.93219 10.6156 2.61875C9.89415 1.89733 9.53348 1.53661 9.08963 1.50335C9.03 1.49888 8.97 1.49888 8.91037 1.50335C8.46652 1.53661 8.10577 1.89733 7.38439 2.61874C7.07095 2.93219 6.91423 3.08891 6.71848 3.17871C6.69129 3.19118 6.66365 3.20263 6.6356 3.21304C6.43369 3.28795 6.21205 3.28796 5.76878 3.28796H5.68702C4.55608 3.28796 3.99062 3.28795 3.63929 3.63929C3.28795 3.99062 3.28796 4.55608 3.28796 5.68702V5.76878C3.28796 6.21205 3.28795 6.43369 3.21304 6.6356C3.20263 6.66365 3.19118 6.69129 3.17871 6.71848C3.08891 6.91423 2.93219 7.07095 2.61874 7.38439C1.89733 8.10577 1.53661 8.46652 1.50335 8.91037C1.49888 8.97 1.49888 9.03 1.50335 9.08963C1.53661 9.53348 1.89733 9.89415 2.61874 10.6156C2.93219 10.9291 3.08891 11.0857 3.17871 11.2815C3.19118 11.3087 3.20263 11.3363 3.21304 11.3644C3.28795 11.5663 3.28796 11.788 3.28796 12.2312V12.313C3.28796 13.4439 3.28795 14.0094 3.63929 14.3607C3.99062 14.7121 4.55608 14.7121 5.68702 14.7121H5.76878C6.21205 14.7121 6.43369 14.7121 6.6356 14.7869C6.66365 14.7974 6.69129 14.8088 6.71848 14.8213C6.91423 14.9111 7.07095 15.0678 7.38439 15.3812C8.10577 16.1027 8.46652 16.4634 8.91037 16.4966C8.97 16.5011 9.03 16.5011 9.08963 16.4966C9.53348 16.4634 9.89415 16.1027 10.6156 15.3812C10.9291 15.0678 11.0857 14.9111 11.2815 14.8213C11.3087 14.8088 11.3363 14.7974 11.3644 14.7869C11.5663 14.7121 11.788 14.7121 12.2312 14.7121H12.313C13.4439 14.7121 14.0094 14.7121 14.3607 14.3607C14.7121 14.0094 14.7121 13.4439 14.7121 12.313V12.2312C14.7121 11.788 14.7121 11.5663 14.7869 11.3644C14.7974 11.3363 14.8088 11.3087 14.8213 11.2815C14.9111 11.0857 15.0678 10.9291 15.3812 10.6156C16.1027 9.89415 16.4634 9.53348 16.4966 9.08963C16.5011 9.03 16.5011 8.97 16.4966 8.91037C16.4634 8.46652 16.1027 8.10577 15.3812 7.38439C15.0678 7.07095 14.9111 6.91423 14.8213 6.71848C14.8088 6.69129 14.7974 6.66365 14.7869 6.6356C14.7121 6.43369 14.7121 6.21205 14.7121 5.76878V5.68702C14.7121 4.55608 14.7121 3.99062 14.3607 3.63929C14.0094 3.28795 13.4439 3.28796 12.313 3.28796H12.2312Z" stroke="#292929" stroke-width="1.125"/>
<path d="M11.625 9C11.625 10.4497 10.4497 11.625 9 11.625C7.55025 11.625 6.375 10.4497 6.375 9C6.375 7.55025 7.55025 6.375 9 6.375C10.4497 6.375 11.625 7.55025 11.625 9Z" stroke="#292929" stroke-width="1.125"/>
</svg>
