<svg width="15" height="15" viewBox="0 0 15 15" fill="none" xmlns="http://www.w3.org/2000/svg">
<path d="M7.5 13.75C10.9518 13.75 13.75 10.9518 13.75 7.5C13.75 4.04822 10.9518 1.25 7.5 1.25C4.04822 1.25 1.25 4.04822 1.25 7.5C1.25 10.9518 4.04822 13.75 7.5 13.75Z" stroke="#0057D6" stroke-width="0.9375"/>
<path d="M5 7.5C5 11.25 7.5 13.75 7.5 13.75C7.5 13.75 10 11.25 10 7.5C10 3.75 7.5 1.25 7.5 1.25C7.5 1.25 5 3.75 5 7.5Z" stroke="#0057D6" stroke-width="0.9375" stroke-linejoin="round"/>
<path d="M13.125 9.375H1.875" stroke="#0057D6" stroke-width="0.9375" stroke-linecap="round" stroke-linejoin="round"/>
<path d="M13.125 5.625H1.875" stroke="#0057D6" stroke-width="0.9375" stroke-linecap="round" stroke-linejoin="round"/>
</svg>
