<svg width="17" height="17" viewBox="0 0 17 17" fill="none" xmlns="http://www.w3.org/2000/svg">
<path d="M2.83334 5.66666C2.83334 3.66319 2.83334 2.66145 3.54466 2.03905C4.25597 1.41666 5.4008 1.41666 7.69046 1.41666H9.30956C11.5992 1.41666 12.7441 1.41666 13.4554 2.03905C14.1667 2.66145 14.1667 3.66319 14.1667 5.66666V12.0417H2.83334V5.66666Z" fill="#868686" stroke="#868686" stroke-width="1.0625" stroke-linejoin="round"/>
<path d="M2.125 12.0417H14.875" stroke="#868686" stroke-width="1.0625" stroke-linecap="round"/>
<path d="M7.57823 3.94251C8.44962 3.81762 9.89356 3.86758 8.69853 5.06648C7.2048 6.5651 4.96425 9.93715 7.57823 8.81317C10.1923 7.68925 11.3127 8.43853 10.1924 9.56251" stroke="white" stroke-width="1.0625" stroke-linecap="round" stroke-linejoin="round"/>
<path d="M8.5 12.0417V14.875" stroke="#868686" stroke-width="1.0625" stroke-linecap="round"/>
<path d="M3.54166 15.5833L5.66666 12.0417" stroke="#868686" stroke-width="1.0625" stroke-linecap="round"/>
<path d="M13.4583 15.5833L11.3333 12.0417" stroke="#868686" stroke-width="1.0625" stroke-linecap="round"/>
</svg>
