<svg width="28" height="28" viewBox="0 0 28 28" fill="none" xmlns="http://www.w3.org/2000/svg">
<rect width="28" height="28" rx="8" fill="#F3F3F3"/>
<path d="M7.25 14C10.625 14 14 10.625 14 7.25C14 10.625 17.375 14 20.75 14C17.375 14 14 17.375 14 20.75C14 17.375 10.625 14 7.25 14Z" stroke="#292929" stroke-width="1.125" stroke-linejoin="round"/>
<path d="M6.5 19.625C7.125 19.625 8.375 18.375 8.375 17.75C8.375 18.375 9.625 19.625 10.25 19.625C9.625 19.625 8.375 20.875 8.375 21.5C8.375 20.875 7.125 19.625 6.5 19.625Z" stroke="#292929" stroke-width="1.125" stroke-linejoin="round"/>
<path d="M17 8.75C17.75 8.75 19.25 7.25 19.25 6.5C19.25 7.25 20.75 8.75 21.5 8.75C20.75 8.75 19.25 10.25 19.25 11C19.25 10.25 17.75 8.75 17 8.75Z" stroke="#292929" stroke-width="1.125" stroke-linejoin="round"/>
</svg>
