<svg width="18" height="18" viewBox="0 0 18 18" fill="none" xmlns="http://www.w3.org/2000/svg">
<path d="M2.25 9C5.625 9 9 5.625 9 2.25C9 5.625 12.375 9 15.75 9C12.375 9 9 12.375 9 15.75C9 12.375 5.625 9 2.25 9Z" stroke="#292929" stroke-width="1.125" stroke-linejoin="round"/>
<path d="M1.5 14.625C2.125 14.625 3.375 13.375 3.375 12.75C3.375 13.375 4.625 14.625 5.25 14.625C4.625 14.625 3.375 15.875 3.375 16.5C3.375 15.875 2.125 14.625 1.5 14.625Z" stroke="#292929" stroke-width="1.125" stroke-linejoin="round"/>
<path d="M12 3.75C12.75 3.75 14.25 2.25 14.25 1.5C14.25 2.25 15.75 3.75 16.5 3.75C15.75 3.75 14.25 5.25 14.25 6C14.25 5.25 12.75 3.75 12 3.75Z" stroke="#292929" stroke-width="1.125" stroke-linejoin="round"/>
</svg>
