<svg width="17" height="17" viewBox="0 0 17 17" fill="none" xmlns="http://www.w3.org/2000/svg">
<path d="M9.28242 4.66784C8.03198 5.35114 6.2059 9.21439 6.28145 10.8204C6.35654 12.409 7.12154 13.4899 8.10187 13.8261C9.0822 14.1623 12.7141 14.4584 12.3032 10.2769C12.2088 9.31781 12.9634 8.60711 13.2311 8.66945C13.9102 8.82811 12.869 9.37117 13.1589 10.1678C13.3978 10.8247 13.6906 12.6814 12.6673 14.4816C11.9774 15.6947 10.3204 16.5277 8.15145 16.5277C6.3419 16.5277 4.5007 15.4855 3.84101 13.7794C3.08734 11.8305 3.51187 10.0804 4.02801 9.28239C4.73776 8.18542 7.08895 5.15186 6.07037 4.45014C7.48704 4.92236 9.28242 4.66784 9.28242 4.66784Z" fill="#FFCC4D"/>
<path d="M7.79165 1.65278C8.44238 1.65278 8.97221 2.18261 8.97221 2.83333C8.97221 3.48405 8.44238 4.01389 7.79165 4.01389C7.14093 4.01389 6.6111 3.48405 6.6111 2.83333C6.6111 2.18261 7.14093 1.65278 7.79165 1.65278ZM7.79165 0.472221C7.16539 0.472284 6.56479 0.721128 6.122 1.16401C5.6792 1.60689 5.43048 2.20754 5.43054 2.8338C5.4306 3.46007 5.67945 4.06067 6.12233 4.50346C6.56521 4.94625 7.16586 5.19498 7.79213 5.19492C8.41839 5.19485 9.01899 4.94601 9.46178 4.50313C9.90458 4.06024 10.1533 3.4596 10.1532 2.83333C10.1532 2.20706 9.90433 1.60647 9.46145 1.16368C9.01856 0.720883 8.41792 0.472159 7.79165 0.472221Z" fill="#FFCC4D"/>
<path d="M6.95493 4.90668C6.95493 4.90668 7.58723 5.16405 8.19593 5.0238C8.19593 5.0238 7.16601 6.28793 6.65082 7.48218C6.13562 8.67643 5.50946 10.0284 5.8079 11.6028C6.06526 12.9609 6.83782 14.3889 8.78101 14.4824C10.7242 14.5759 11.8948 13.8034 12.199 13.2183C12.5035 12.6332 12.6905 12.6563 12.4799 13.4756C12.4006 13.784 11.6266 15.6181 8.6299 15.8051C6.42887 15.9425 4.83182 14.7025 4.31662 12.7125C3.80143 10.7226 4.9834 8.93521 5.53685 8.10505C6.94218 5.99752 6.95493 4.90668 6.95493 4.90668Z" fill="#FFAC33"/>
<path d="M7.35692 5.01955C7.11797 4.9728 6.95506 4.90668 6.95506 4.90668C6.95506 4.90668 6.95175 5.10691 6.83983 5.49885C6.74161 5.84216 6.55839 6.33374 6.22028 6.96935C6.51581 6.5077 6.79986 6.0388 7.07217 5.56307C7.26625 5.6103 7.48158 5.64524 7.71628 5.66318C7.86976 5.4453 8.02976 5.23207 8.19606 5.0238C7.89525 5.09274 7.59019 5.06488 7.35692 5.01955ZM8.91761 14.8092C10.9652 14.8701 11.9989 14.132 12.5528 12.8584C12.5103 12.7508 12.3757 12.8778 12.1991 13.2178C11.8945 13.8029 10.7243 14.5759 8.78114 14.4819C7.02825 14.3974 6.22925 13.2268 5.90058 12.0014L5.88831 12.0037C6.14047 12.9297 6.56122 14.7388 8.91761 14.8092Z" fill="#F4900C"/>
<path d="M7.79167 1.65297C8.37156 1.65297 8.85228 2.07419 8.95145 2.62575C8.95947 2.63472 8.96845 2.64369 8.97506 2.65314C8.96609 2.00147 8.57225 1.35028 7.74681 1.41355C7.04084 1.46786 6.67959 2.05153 6.61914 2.58183C6.62811 2.56766 6.64086 2.55539 6.6522 2.54264C6.7163 2.28883 6.86311 2.0636 7.06944 1.9025C7.27578 1.7414 7.52989 1.6536 7.79167 1.65297Z" fill="#C1694F"/>
<path d="M8.97222 2.83324C8.97222 3.48396 8.44239 4.01379 7.79166 4.01379C7.14094 4.01379 6.61111 3.48396 6.61111 2.83324C6.60568 2.74929 6.60821 2.66502 6.61866 2.58154C6.59132 2.62225 6.57401 2.66886 6.56814 2.71754C6.49966 3.42257 7.03375 4.30185 7.93569 4.23243C8.75641 4.16915 9.0728 3.35882 9.02983 2.78082C9.02377 2.73392 9.00481 2.68961 8.97505 2.65285C8.976 2.71329 8.97789 2.77374 8.97222 2.83324Z" fill="#FFD983"/>
<path d="M6.65179 2.54281C6.64045 2.55603 6.6277 2.56831 6.61873 2.582C6.60828 2.66548 6.60575 2.74975 6.61118 2.8337C6.61118 2.73264 6.6277 2.63631 6.65179 2.54281ZM8.97229 2.8337C8.97795 2.7742 8.97606 2.71375 8.97512 2.65331C8.96804 2.64386 8.95954 2.63489 8.95151 2.62592C8.96331 2.69392 8.97229 2.76239 8.97229 2.8337Z" fill="#FFD983"/>
<path d="M7.72547 0.719235C8.39791 0.686651 9.23752 1.13526 9.47175 1.56073C9.70314 1.98148 9.19691 1.77182 9.051 1.56073C8.86163 1.28732 8.06216 1.13998 7.66219 1.18201C7.26222 1.22404 6.57938 1.51446 6.37869 1.8554C6.16808 2.21287 5.81958 2.29693 5.99997 1.8554C6.18933 1.39262 6.86272 0.761262 7.72547 0.719235Z" fill="#FFE8B6"/>
<path d="M8.18829 16.2956C5.31907 16.2068 4.11113 14.2707 3.73193 13.4703C3.76546 13.5728 3.80088 13.6757 3.84102 13.7796C4.50118 15.4858 6.34238 16.528 8.15146 16.528C10.3199 16.528 11.9774 15.695 12.6673 14.4818C12.7485 14.3387 12.8189 14.1957 12.8841 14.0526C12.2881 14.8823 11.1005 16.3858 8.18829 16.2956Z" fill="#C1694F"/>
<path d="M12.6207 9.31011C12.9182 9.01261 13.2941 8.86149 13.0693 9.19772C12.845 9.53441 12.7047 9.75872 12.7326 10.1233C12.7605 10.4878 12.4521 10.2073 12.4521 10.0109C12.4526 9.81491 12.4242 9.50655 12.6207 9.31011Z" fill="#FFE8B6"/>
</svg>
