<svg width="24" height="24" viewBox="0 0 24 24" fill="none" xmlns="http://www.w3.org/2000/svg">
<circle cx="12" cy="12" r="12" fill="black"/>
<path d="M17 6H7L4 11.72L12 19L20 11.72L17 6Z" fill="white"/>
<path d="M15.2812 9.1875V10.4375C15.2812 10.5618 15.2319 10.681 15.144 10.769C15.056 10.8569 14.9368 10.9062 14.8125 10.9062C14.6882 10.9062 14.569 10.8569 14.481 10.769C14.3931 10.681 14.3438 10.5618 14.3438 10.4375V9.65625H12.4688V14.3438H13.25C13.3743 14.3438 13.4935 14.3931 13.5815 14.481C13.6694 14.569 13.7188 14.6882 13.7188 14.8125C13.7188 14.9368 13.6694 15.056 13.5815 15.144C13.4935 15.2319 13.3743 15.2812 13.25 15.2812H10.75C10.6257 15.2812 10.5065 15.2319 10.4185 15.144C10.3306 15.056 10.2812 14.9368 10.2812 14.8125C10.2812 14.6882 10.3306 14.569 10.4185 14.481C10.5065 14.3931 10.6257 14.3438 10.75 14.3438H11.5312V9.65625H9.65625V10.4375C9.65625 10.5618 9.60686 10.681 9.51896 10.769C9.43105 10.8569 9.31182 10.9062 9.1875 10.9062C9.06318 10.9062 8.94395 10.8569 8.85604 10.769C8.76814 10.681 8.71875 10.5618 8.71875 10.4375V9.1875C8.71875 9.06318 8.76814 8.94395 8.85604 8.85604C8.94395 8.76814 9.06318 8.71875 9.1875 8.71875H14.8125C14.9368 8.71875 15.056 8.76814 15.144 8.85604C15.2319 8.94395 15.2812 9.06318 15.2812 9.1875Z" fill="black"/>
</svg>
