<svg width="17" height="17" viewBox="0 0 17 17" fill="none" xmlns="http://www.w3.org/2000/svg">
<path d="M9.20835 2.83334H4.41617C2.68761 2.83334 1.82332 2.83334 1.51896 3.37627C1.50968 3.39281 1.50086 3.40959 1.49249 3.4266C1.2176 3.98504 1.70733 4.69717 2.6868 6.12146C3.46811 7.25759 3.85876 7.82568 3.8683 8.46849C3.86861 8.48953 3.86861 8.51049 3.8683 8.53153C3.85876 9.17434 3.46811 9.74243 2.6868 10.8786C1.70733 12.3028 1.2176 13.015 1.49249 13.5734C1.50086 13.5904 1.50968 13.6072 1.51896 13.6237C1.82332 14.1667 2.68761 14.1667 4.41617 14.1667H9.20835C10.5987 14.1667 11.2939 14.1667 11.8922 13.8675C12.4903 13.5684 12.9075 13.0123 13.7417 11.9C14.9694 10.263 15.5834 9.44443 15.5834 8.50001C15.5834 7.55559 14.9694 6.73705 13.7417 5.10001C12.9075 3.98773 12.4903 3.43159 11.8922 3.13247C11.2939 2.83334 10.5987 2.83334 9.20835 2.83334Z" fill="#868686" stroke="#868686" stroke-width="1.0625"/>
</svg>
