<svg width="15" height="15" viewBox="0 0 15 15" fill="none" xmlns="http://www.w3.org/2000/svg">
<path d="M8.125 2.5H13.75" stroke="#535353" stroke-width="0.9375" stroke-linecap="round" stroke-linejoin="round"/>
<path d="M8.125 5H13.75" stroke="#535353" stroke-width="0.9375" stroke-linecap="round" stroke-linejoin="round"/>
<path d="M1.25 7.5H13.75" stroke="#535353" stroke-width="0.9375" stroke-linecap="round" stroke-linejoin="round"/>
<path d="M8.125 12.5H13.75" stroke="#535353" stroke-width="0.9375" stroke-linecap="round" stroke-linejoin="round"/>
<path d="M8.125 10H13.75" stroke="#535353" stroke-width="0.9375" stroke-linecap="round" stroke-linejoin="round"/>
<path d="M5 5.3125L4.19643 3.4375M4.19643 3.4375L3.49139 1.79241C3.47182 1.74675 3.46204 1.72392 3.44966 1.70453C3.40221 1.6302 3.32122 1.57937 3.22889 1.56599C3.20481 1.5625 3.1782 1.5625 3.125 1.5625C3.0718 1.5625 3.04519 1.5625 3.02111 1.56599C2.92878 1.57937 2.84779 1.63019 2.80034 1.70453C2.78796 1.72391 2.77818 1.74675 2.75861 1.79241L2.05357 3.4375M4.19643 3.4375H2.05357M2.05357 3.4375L1.25 5.3125" stroke="#535353" stroke-width="0.9375" stroke-linecap="round" stroke-linejoin="round"/>
<path d="M5 13.4375L4.19643 11.5625M4.19643 11.5625L3.49139 9.91744C3.47182 9.87175 3.46204 9.84894 3.44966 9.8295C3.40221 9.75519 3.32122 9.70437 3.22889 9.691C3.20481 9.6875 3.1782 9.6875 3.125 9.6875C3.0718 9.6875 3.04519 9.6875 3.02111 9.691C2.92878 9.70437 2.84779 9.75519 2.80034 9.8295C2.78796 9.84894 2.77818 9.87175 2.75861 9.91744L2.05357 11.5625M4.19643 11.5625H2.05357M2.05357 11.5625L1.25 13.4375" stroke="#535353" stroke-width="0.9375" stroke-linecap="round" stroke-linejoin="round"/>
</svg>
