<svg width="15" height="15" viewBox="0 0 15 15" fill="none" xmlns="http://www.w3.org/2000/svg">
<path d="M7.57519 7.98779C7.53144 7.98154 7.4752 7.98154 7.4252 7.98779C6.3252 7.95029 5.4502 7.05029 5.4502 5.94404C5.4502 4.81279 6.3627 3.89404 7.50019 3.89404C8.63144 3.89404 9.55019 4.81279 9.55019 5.94404C9.54394 7.05029 8.67519 7.95029 7.57519 7.98779Z" stroke="#2B2B2B" stroke-width="0.9375" stroke-linecap="round" stroke-linejoin="round"/>
<path d="M11.7124 12.1128C10.5999 13.1316 9.12485 13.7503 7.49985 13.7503C5.87485 13.7503 4.39985 13.1316 3.28735 12.1128C3.34985 11.5253 3.72485 10.9503 4.3936 10.5003C6.1061 9.36284 8.9061 9.36284 10.6061 10.5003C11.2749 10.9503 11.6499 11.5253 11.7124 12.1128Z" stroke="#2B2B2B" stroke-width="0.9375" stroke-linecap="round" stroke-linejoin="round"/>
<path d="M7.5 13.75C10.9518 13.75 13.75 10.9518 13.75 7.5C13.75 4.04822 10.9518 1.25 7.5 1.25C4.04822 1.25 1.25 4.04822 1.25 7.5C1.25 10.9518 4.04822 13.75 7.5 13.75Z" stroke="#2B2B2B" stroke-width="0.9375" stroke-linecap="round" stroke-linejoin="round"/>
</svg>
